2.8Hzhigh3min_grf.mot
version=1
nRows=10
nColumns 19
inDegrees=yes
endheader
time	1_ground_force_vx	1_ground_force_vy	1_ground_force_vz	1_ground_force_px	1_ground_force_py	1_ground_force_pz	1_ground_torque_x	1_ground_torque_y	1_ground_torque_z	2_ground_force_vx	2_ground_force_vy	2_ground_force_vz	2_ground_force_px	2_ground_force_py	2_ground_force_pz	2_ground_torque_x	2_ground_torque_y	2_ground_torque_z
            2.470000	           -0.273626	           -0.362944	            0.549408	           -0.233013	            0.005581	           -0.255695	           -0.061280	            0.046904	           -0.199343	           -0.187064	           -0.182147	           -0.751427	           -0.232311	            0.006130	           -0.833667	           -0.225015	           -0.114246	           -0.000309
            2.470500	           -0.317809	           -0.726236	            1.189958	           -0.233013	            0.005581	           -0.255695	           -0.107135	           -0.045618	           -0.182770	           -0.138844	           -0.550609	           -0.658905	           -0.232311	            0.006130	           -0.833667	           -0.206331	           -0.095004	           -0.075650
            2.471000	           -0.363425	           -0.726638	            1.281784	           -0.233013	            0.005581	           -0.255695	            0.058152	           -0.156927	           -0.091622	            0.191929	           -1.287357	           -0.286248	           -0.232311	            0.006130	           -0.833667	           -0.187402	           -0.123631	            0.018492
            2.471500	           -0.272032	           -0.365696	            1.191390	           -0.233013	            0.005581	           -0.255695	           -0.088656	           -0.193326	           -0.219103	            0.001973	           -0.552278	           -0.048899	           -0.232311	            0.006130	           -0.833667	           -0.243766	           -0.123767	           -0.000335
            2.472000	           -0.364189	           -0.905528	            0.960020	           -0.233013	            0.005581	           -0.255695	           -0.115967	           -0.082703	           -0.166057	            0.330464	           -0.734238	           -0.331264	           -0.232311	            0.006130	           -0.833667	           -0.243894	           -0.086023	            0.018651
            2.472500	           -0.180721	           -0.184823	            1.054368	           -0.233013	            0.005581	           -0.255695	           -0.101619	            0.046876	           -0.176542	            0.281620	           -0.181962	           -0.329273	           -0.232311	            0.006130	           -0.833667	           -0.281413	           -0.104930	           -0.019101
            2.473000	           -0.043467	           -0.544738	            0.914913	           -0.233013	            0.005581	           -0.255695	           -0.114046	            0.046529	           -0.076645	           -0.093302	           -0.182311	           -0.610683	           -0.232311	            0.006130	           -0.833667	           -0.243928	           -0.076571	            0.018684
            2.473500	           -0.273021	           -1.805659	            0.680792	           -0.233013	            0.005581	           -0.255695	           -0.065989	            0.064992	           -0.105212	           -0.558519	           -1.104409	           -0.707625	           -0.232311	            0.006130	           -0.833667	           -0.187470	           -0.104725	            0.018559
            2.474000	           -0.548112	           -1.625446	            0.682247	           -0.233013	            0.005581	           -0.255695	           -0.084785	           -0.083194	           -0.079940	           -0.328217	            0.000992	           -0.609926	           -0.232311	            0.006130	           -0.833667	           -0.281285	           -0.142673	           -0.038086
            2.474500	           -0.272146	           -0.365500	            1.145535	           -0.233013	            0.005581	           -0.255695	           -0.161566	           -0.138284	           -0.124696	           -0.139447	           -0.366963	           -0.517463	           -0.232311	            0.006130	           -0.833667	           -0.375281	           -0.114923	            0.037455
